<?xml version="1.0" encoding="iso-8859-1"?>
<!-- Generator: Adobe Illustrator 19.0.0, SVG Export Plug-In . SVG Version: 6.00 Build 0)  -->
<svg version="1.1" id="Capa_1" xmlns="http://www.w3.org/2000/svg" xmlns:xlink="http://www.w3.org/1999/xlink" x="0px" y="0px"
	 viewBox="0 0 468.293 468.293" style="enable-background:new 0 0 468.293 468.293;" xml:space="preserve">
<rect x="21.242" style="fill:#64798A;" width="298.028" height="443.941"/>
<g>
	<rect x="54.703" y="34.341" style="fill:#44C4A1;" width="38.256" height="63.282"/>
	<rect x="118.984" y="34.341" style="fill:#44C4A1;" width="38.256" height="63.282"/>
	<rect x="183.271" y="34.341" style="fill:#44C4A1;" width="38.256" height="63.282"/>
	<rect x="247.571" y="34.341" style="fill:#44C4A1;" width="38.256" height="63.282"/>
	<rect x="54.703" y="134.306" style="fill:#44C4A1;" width="38.256" height="63.282"/>
	<rect x="118.984" y="134.306" style="fill:#44C4A1;" width="38.256" height="63.282"/>
</g>
<g>
	<rect x="183.271" y="134.306" style="fill:#27A2DB;" width="38.256" height="63.282"/>
	<rect x="247.571" y="134.306" style="fill:#27A2DB;" width="38.256" height="63.282"/>
</g>
<g>
	<polygon style="fill:#2D93BA;" points="221.525,297.515 183.269,297.515 221.525,234.231 	"/>
	<polygon style="fill:#2D93BA;" points="285.808,297.515 247.553,297.515 285.808,234.231 	"/>
</g>
<g>
	<rect x="54.703" y="334.174" style="fill:#44C4A1;" width="38.256" height="63.282"/>
	<rect x="118.984" y="334.174" style="fill:#44C4A1;" width="38.256" height="63.282"/>
</g>
<g>
	<rect x="183.271" y="334.174" style="fill:#27A2DB;" width="38.256" height="63.282"/>
	<rect x="247.571" y="334.174" style="fill:#27A2DB;" width="38.256" height="63.282"/>
</g>
<g>
	<polygon style="fill:#3EA69B;" points="92.958,97.628 54.703,97.628 92.958,34.344 	"/>
	<polygon style="fill:#3EA69B;" points="157.242,97.628 118.986,97.628 157.242,34.344 	"/>
	<polygon style="fill:#3EA69B;" points="221.525,97.628 183.269,97.628 221.525,34.344 	"/>
	<polygon style="fill:#3EA69B;" points="285.808,97.628 247.553,97.628 285.808,34.344 	"/>
	<polygon style="fill:#3EA69B;" points="92.958,197.571 54.703,197.571 92.958,134.288 	"/>
	<polygon style="fill:#3EA69B;" points="157.242,197.571 118.986,197.571 157.242,134.288 	"/>
</g>
<g>
	<polygon style="fill:#2D93BA;" points="221.525,197.571 183.269,197.571 221.525,134.288 	"/>
	<polygon style="fill:#2D93BA;" points="285.808,197.571 247.553,197.571 285.808,134.288 	"/>
</g>
<g>
	<rect x="54.703" y="234.209" style="fill:#44C4A1;" width="38.256" height="63.282"/>
	<rect x="118.984" y="234.209" style="fill:#44C4A1;" width="38.256" height="63.282"/>
</g>
<g>
	<rect x="183.271" y="234.209" style="fill:#27A2DB;" width="38.256" height="63.282"/>
	<rect x="247.571" y="234.209" style="fill:#27A2DB;" width="38.256" height="63.282"/>
</g>
<g>
	<polygon style="fill:#3EA69B;" points="92.958,397.458 54.703,397.458 92.958,334.175 	"/>
	<polygon style="fill:#3EA69B;" points="157.242,397.458 118.986,397.458 157.242,334.175 	"/>
</g>
<g>
	<polygon style="fill:#2D93BA;" points="221.525,397.458 183.269,397.458 221.525,334.175 	"/>
	<polygon style="fill:#2D93BA;" points="285.808,397.458 247.553,397.458 285.808,334.175 	"/>
</g>
<rect x="183.271" y="133.638" style="fill:#D5D6DB;" width="255.563" height="310.328"/>
<rect x="268.488" y="358.793" style="fill:#64798A;" width="85.186" height="85.173"/>
<rect x="257.792" y="344.457" style="fill:#3A556A;" width="106.521" height="14.342"/>
<g>
	<rect x="204.55" y="162.597" style="fill:#27A2DB;" width="35.253" height="61.49"/>
	<rect x="263.805" y="162.597" style="fill:#27A2DB;" width="35.253" height="61.49"/>
	<rect x="323.06" y="162.597" style="fill:#27A2DB;" width="35.253" height="61.49"/>
	<rect x="382.283" y="162.597" style="fill:#27A2DB;" width="35.253" height="61.49"/>
</g>
<g>
	<polygon style="fill:#2D93BA;" points="239.82,224.088 204.566,224.088 239.82,162.597 	"/>
	<polygon style="fill:#2D93BA;" points="299.059,224.088 263.805,224.088 299.059,162.597 	"/>
	<polygon style="fill:#2D93BA;" points="358.297,224.088 323.044,224.088 358.297,162.597 	"/>
	<polygon style="fill:#2D93BA;" points="417.536,224.088 382.283,224.088 417.536,162.597 	"/>
</g>
<g>
	<rect x="204.55" y="254.002" style="fill:#27A2DB;" width="35.253" height="61.49"/>
	<rect x="263.805" y="254.002" style="fill:#27A2DB;" width="35.253" height="61.49"/>
	<rect x="323.06" y="254.002" style="fill:#27A2DB;" width="35.253" height="61.49"/>
	<rect x="382.283" y="254.002" style="fill:#27A2DB;" width="35.253" height="61.49"/>
	<rect x="382.283" y="344.457" style="fill:#27A2DB;" width="35.253" height="61.49"/>
	<rect x="204.55" y="344.457" style="fill:#27A2DB;" width="35.253" height="61.49"/>
</g>
<g>
	<polygon style="fill:#2D93BA;" points="239.82,315.497 204.566,315.497 239.82,254.006 	"/>
	<polygon style="fill:#2D93BA;" points="299.059,315.497 263.805,315.497 299.059,254.006 	"/>
	<polygon style="fill:#2D93BA;" points="358.297,315.497 323.044,315.497 358.297,254.006 	"/>
	<polygon style="fill:#2D93BA;" points="417.536,315.497 382.283,315.497 417.536,254.006 	"/>
	<polygon style="fill:#2D93BA;" points="417.536,405.946 382.283,405.946 417.536,344.456 	"/>
	<polygon style="fill:#2D93BA;" points="239.82,405.946 204.566,405.946 239.82,344.456 	"/>
</g>
<path style="fill:#3A556A;" d="M455.967,468.293H12.326c-3.448,0-6.244-2.796-6.244-6.244V450.21c0-3.448,2.795-6.244,6.244-6.244
	h443.641c3.448,0,6.244,2.795,6.244,6.244v11.839C462.211,465.497,459.415,468.293,455.967,468.293z"/>
<g>
	<polygon style="fill:#3EA69B;" points="92.958,297.515 54.703,297.515 92.958,234.231 	"/>
	<polygon style="fill:#3EA69B;" points="157.242,297.515 118.986,297.515 157.242,234.231 	"/>
</g>
<g>
</g>
<g>
</g>
<g>
</g>
<g>
</g>
<g>
</g>
<g>
</g>
<g>
</g>
<g>
</g>
<g>
</g>
<g>
</g>
<g>
</g>
<g>
</g>
<g>
</g>
<g>
</g>
<g>
</g>
</svg>
