<svg height="512pt" viewBox="0 0 512 512" width="512pt" xmlns="http://www.w3.org/2000/svg"><path d="m280 50h83.828125c16.664063 0 30.171875 13.507812 30.171875 30.171875v391.65625c0 16.664063-13.507812 30.171875-30.171875 30.171875h-323.65625c-16.664063 0-30.171875-13.507812-30.171875-30.171875v-391.65625c0-16.664063 13.507812-30.171875 30.171875-30.171875zm0 0" fill="#91def5"/><path d="m50 90v332c0 22.089844 17.910156 40 40 40s40-17.910156 40-40h224v-332zm0 0" fill="#fff"/><path d="m130 422c0 22.089844-17.910156 40-40 40h264c22.089844 0 40-17.910156 40-40zm0 0" fill="#e5ecec"/><path d="m254 10h-104c-9.941406 0-18 8.058594-18 18v62h140v-62c0-9.941406-8.058594-18-18-18zm0 0" fill="#e1e3e9"/><g fill="#ffedd1"><path d="m98 138h64v64h-64zm0 0"/><path d="m98 248h64v64h-64zm0 0"/><path d="m98 358h64v64h-64zm0 0"/></g><path d="m446 433.597656v-287.597656c0-15.464844 12.535156-28 28-28s28 12.535156 28 28v287.597656l-28 68.402344zm0 0" fill="#ffcb7c"/><path d="m502 433.597656h-56l28 68.402344zm0 0" fill="#8690a6"/><path d="m502 165.25v-19.25c0-15.464844-12.535156-28-28-28s-28 12.535156-28 28v19.25zm0 0" fill="#ff6977"/><path d="m363.828125 40h-81.828125v-12c0-15.4375-12.5625-28-28-28h-104c-15.4375 0-28 12.5625-28 28v12h-81.828125c-22.152344 0-40.171875 18.019531-40.171875 40.171875v391.65625c0 22.152344 18.019531 40.171875 40.171875 40.171875h323.65625c22.152344 0 40.171875-18.019531 40.171875-40.171875v-391.65625c0-22.152344-18.019531-40.171875-40.171875-40.171875zm-303.828125 382v-322h284v312h-236v-54c0-5.523438-4.476562-10-10-10s-10 4.476562-10 10v64c0 5.523438 4.476562 10 10 10h20.28125c-4.128906 11.640625-15.246094 20-28.28125 20-16.542969 0-30-13.457031-30-30zm78.992188 10h243.289062c-4.128906 11.640625-15.246094 20-28.28125 20h-224.027344c4.375-5.816406 7.515625-12.613281 9.019532-20zm224.835937-372c11.121094 0 20.171875 9.050781 20.171875 20.171875v331.828125h-20v-322c0-5.523438-4.476562-10-10-10h-72v-20zm-221.828125-32c0-4.410156 3.589844-8 8-8h104c4.410156 0 8 3.589844 8 8v52h-120zm221.828125 464h-323.65625c-11.121094 0-20.171875-9.050781-20.171875-20.171875v-391.65625c0-11.121094 9.050781-20.171875 20.171875-20.171875h81.828125v20h-72c-5.523438 0-10 4.476562-10 10v332c0 25.277344 18.859375 46.222656 43.242188 49.53125.957031.304688 1.972656.46875 3.027343.46875h267.730469c11.246094 0 21.636719-3.734375 30-10.027344v9.855469c0 11.121094-9.050781 20.171875-20.171875 20.171875zm0 0"/><path d="m227 40h-50c-5.523438 0-10 4.476562-10 10s4.476562 10 10 10h50c5.523438 0 10-4.476562 10-10s-4.476562-10-10-10zm0 0"/><path d="m98 212h64c5.523438 0 10-4.476562 10-10s-4.476562-10-10-10h-54v-54c0-5.523438-4.476562-10-10-10s-10 4.476562-10 10v64c0 5.523438 4.476562 10 10 10zm0 0"/><path d="m210 164h96c5.523438 0 10-4.476562 10-10s-4.476562-10-10-10h-96c-5.523438 0-10 4.476562-10 10s4.476562 10 10 10zm0 0"/><path d="m210 212h96c5.523438 0 10-4.476562 10-10s-4.476562-10-10-10h-96c-5.523438 0-10 4.476562-10 10s4.476562 10 10 10zm0 0"/><path d="m139.207031 175.398438c1.953125 1.953124 4.511719 2.929687 7.070313 2.929687s5.117187-.976563 7.070312-2.929687l25.820313-25.820313c3.902343-3.902344 3.902343-10.234375 0-14.140625-3.90625-3.90625-10.238281-3.90625-14.144531 0l-18.746094 18.746094-5.652344-5.652344c-3.90625-3.902344-10.238281-3.902344-14.144531 0-3.902344 3.90625-3.902344 10.238281 0 14.144531zm0 0"/><path d="m98 322h64c5.523438 0 10-4.476562 10-10s-4.476562-10-10-10h-54v-54c0-5.523438-4.476562-10-10-10s-10 4.476562-10 10v64c0 5.523438 4.476562 10 10 10zm0 0"/><path d="m210 274h96c5.523438 0 10-4.476562 10-10s-4.476562-10-10-10h-96c-5.523438 0-10 4.476562-10 10s4.476562 10 10 10zm0 0"/><path d="m210 322h96c5.523438 0 10-4.476562 10-10s-4.476562-10-10-10h-96c-5.523438 0-10 4.476562-10 10s4.476562 10 10 10zm0 0"/><path d="m165.023438 245.4375-18.746094 18.746094-5.652344-5.652344c-3.90625-3.902344-10.238281-3.902344-14.144531 0-3.902344 3.90625-3.902344 10.238281 0 14.144531l12.722656 12.722657c1.953125 1.953124 4.515625 2.929687 7.074219 2.929687s5.117187-.976563 7.070312-2.929687l25.816406-25.820313c3.90625-3.902344 3.90625-10.234375 0-14.140625-3.902343-3.90625-10.234374-3.90625-14.140624 0zm0 0"/><path d="m210 384h96c5.523438 0 10-4.476562 10-10s-4.476562-10-10-10h-96c-5.523438 0-10 4.476562-10 10s4.476562 10 10 10zm0 0"/><path d="m165.023438 355.4375-18.746094 18.746094-5.652344-5.652344c-3.90625-3.902344-10.238281-3.902344-14.144531 0-3.902344 3.90625-3.902344 10.238281 0 14.144531l12.722656 12.722657c1.953125 1.953124 4.515625 2.929687 7.074219 2.929687s5.117187-.976563 7.070312-2.929687l25.816406-25.820313c3.90625-3.902344 3.90625-10.234375 0-14.140625-3.902343-3.90625-10.234374-3.90625-14.140624 0zm0 0"/><path d="m474 108c-20.953125 0-38 17.046875-38 38v287.597656c0 1.296875.253906 2.585938.746094 3.789063l28 68.402343c1.535156 3.757813 5.195312 6.210938 9.253906 6.210938s7.71875-2.453125 9.253906-6.210938l28-68.402343c.492188-1.203125.746094-2.492188.746094-3.789063v-94.171875c0-5.523437-4.476562-10-10-10s-10 4.476563-10 10v84.171875h-36v-248.347656h36v84.171875c0 5.523437 4.476562 10 10 10s10-4.476563 10-10v-113.421875c0-20.953125-17.046875-38-38-38zm0 367.601562-13.101562-32.003906h26.203124zm-18-320.351562v-9.25c0-9.925781 8.074219-18 18-18s18 8.074219 18 18v9.25zm0 0"/><path d="m502 289.421875c-2.628906 0-5.210938 1.066406-7.070312 2.929687-1.859376 1.859376-2.929688 4.4375-2.929688 7.070313 0 2.636719 1.070312 5.207031 2.929688 7.066406 1.859374 1.871094 4.441406 2.933594 7.070312 2.933594s5.210938-1.0625 7.070312-2.933594c1.859376-1.859375 2.929688-4.429687 2.929688-7.066406 0-2.632813-1.070312-5.210937-2.929688-7.070313-1.859374-1.863281-4.441406-2.929687-7.070312-2.929687zm0 0"/></svg>